<svg xmlns="http://www.w3.org/2000/svg" viewBox="0 0 600 400" role="img" aria-label="A clipboard with a checklist, a pencil and a clock, for exam preparation"><defs><linearGradient id="bg" x1="0" y1="0" x2="1" y2="1"><stop offset="0" stop-color="#2a1a4a"/><stop offset="1" stop-color="#7a4fc9"/></linearGradient><linearGradient id="acc" x1="0" y1="0" x2="1" y2="1"><stop offset="0" stop-color="#19d0ae"/><stop offset="1" stop-color="#76ead1"/></linearGradient><radialGradient id="glow" cx=".5" cy=".5" r=".5"><stop offset="0" stop-color="#ffe9b0" stop-opacity=".9"/><stop offset="1" stop-color="#ffe9b0" stop-opacity="0"/></radialGradient></defs><rect width="600" height="400" fill="url(#bg)"/><circle cx="300" cy="200" r="150" fill="url(#glow)" opacity=".22"/><rect x="205" y="90" width="150" height="210" rx="14" fill="#f4f1ea" stroke="#2a1a4a" stroke-width="3"/><rect x="255" y="80" width="50" height="22" rx="8" fill="#c9b6ff" stroke="#2a1a4a" stroke-width="3"/><rect x="222" y="130" width="20" height="20" rx="4" fill="#19d0ae" stroke="#0e6b57" stroke-width="2.5"/><path d="M226 140 l5 6 l10 -12" stroke="#0a2b23" stroke-width="2.5" fill="none" stroke-linecap="round" stroke-linejoin="round"/><rect x="250" y="136" width="96" height="8" rx="4" fill="#9c8fc9" opacity=".8"/><rect x="222" y="170" width="20" height="20" rx="4" fill="#19d0ae" stroke="#0e6b57" stroke-width="2.5"/><path d="M226 180 l5 6 l10 -12" stroke="#0a2b23" stroke-width="2.5" fill="none" stroke-linecap="round" stroke-linejoin="round"/><rect x="250" y="176" width="80" height="8" rx="4" fill="#9c8fc9" opacity=".8"/><rect x="222" y="210" width="20" height="20" rx="4" fill="none" stroke="#0e6b57" stroke-width="2.5"/><rect x="250" y="216" width="88" height="8" rx="4" fill="#9c8fc9" opacity=".8"/><rect x="222" y="250" width="20" height="20" rx="4" fill="#19d0ae" stroke="#0e6b57" stroke-width="2.5"/><path d="M226 260 l5 6 l10 -12" stroke="#0a2b23" stroke-width="2.5" fill="none" stroke-linecap="round" stroke-linejoin="round"/><rect x="250" y="256" width="70" height="8" rx="4" fill="#9c8fc9" opacity=".8"/><g transform="rotate(28 400 260)"><rect x="392" y="150" width="16" height="110" rx="2" fill="#e2b24e"/><path d="M392 150 L408 150 L400 128Z" fill="#f0c987"/><path d="M397 132 L403 132 L400 122Z" fill="#4a3a20"/><rect x="392" y="248" width="16" height="14" fill="#caa0e0"/></g><circle cx="452" cy="330" r="34" fill="#f4f1ea" stroke="#2a1a4a" stroke-width="4"/><line x1="452" y1="330" x2="452" y2="310" stroke="#2a1a4a" stroke-width="3" stroke-linecap="round"/><line x1="452" y1="330" x2="467" y2="336" stroke="#2a1a4a" stroke-width="3" stroke-linecap="round"/><circle cx="452" cy="330" r="3" fill="#2a1a4a"/></svg>